# xmcd
#
# Track frame offsets: 
#        182
#        13627
#        25742
#        36945
#        49157
#        58672
#        72147
#        87762
#
# Disc length: 1320 seconds
#
# Revision: 0
# Processed by: cddbd v1.5.1PL0 Copyright (c) Steve Scherf et al.
# Submitted via: ExactAudioCopy v0.95a5
#
DISCID=5f052608
DTITLE=Kitty Wells - One Day at a Time
DYEAR=1900
DGENRE=Country
TTITLE0=One Day At A Time
TTITLE1=In The Sweet Bye And Bye
TTITLE2=Dust On The Bible
TTITLE3=Gathering Flowers for the Master's Bouquet
TTITLE4=He's Got the whole World in his Hands
TTITLE5=Aamazing Grace
TTITLE6=The Third Man
TTITLE7=Matthew 24
EXTD=
EXTT0=
EXTT1=
EXTT2=
EXTT3=
EXTT4=
EXTT5=
EXTT6=
EXTT7=
PLAYORDER=
